<?xml version="1.0" encoding="UTF-8"?><svg id="a" xmlns="http://www.w3.org/2000/svg" viewBox="0 0 20 39.87"><defs><style>.d{fill:#b6b6b6;}.d,.e{stroke-width:0px;}.e{fill:#e5e5e5;}</style></defs><path id="b" class="d" d="m7.5,34.13l1.83-1.83-2.4-2.4,2.38-2.38-1.83-1.83-4.21,4.21,4.23,4.23Zm5.06,0l4.23-4.23-4.23-4.23-1.83,1.83,2.4,2.4-2.4,2.4,1.83,1.83Zm-9.76,5.73c-.76,0-1.4-.27-1.94-.8-.53-.53-.8-1.18-.8-1.94v-14.46c0-.76.27-1.4.8-1.94.53-.53,1.18-.8,1.94-.8h14.46c.76,0,1.4.27,1.94.8s.8,1.18.8,1.94v14.46c0,.76-.27,1.4-.8,1.94-.53.53-1.18.8-1.94.8H2.8Z"/><path id="c" class="e" d="m7.5,14.2l1.83-1.83-2.4-2.4,2.38-2.38-1.83-1.83-4.21,4.21,4.23,4.23Zm5.06,0l4.23-4.23-4.23-4.23-1.83,1.83,2.4,2.4-2.4,2.4,1.83,1.83Zm-9.76,5.73c-.76,0-1.4-.27-1.94-.8-.53-.53-.8-1.18-.8-1.94V2.74C.07,1.98.33,1.33.87.8c.53-.53,1.18-.8,1.94-.8h14.46c.76,0,1.4.27,1.94.8s.8,1.18.8,1.94v14.46c0,.76-.27,1.4-.8,1.94-.53.53-1.18.8-1.94.8H2.8Z"/></svg>