<?xml version="1.0" encoding="UTF-8"?><svg id="a" xmlns="http://www.w3.org/2000/svg" viewBox="0 0 20 30"><defs><style>.b{fill:#e5e5e5;}.c{fill:#b6b6b6;}</style></defs><path class="b" d="m1.88,0C.84,0,0,.84,0,1.88c0,.59.28,1.14.75,1.5l8.5,6.38c.45.33,1.05.33,1.5,0l8.5-6.38c.47-.36.75-.91.75-1.5,0-1.04-.84-1.88-1.88-1.88C18.12,0,1.88,0,1.88,0ZM0,4.38v8.12c0,1.38,1.12,2.5,2.5,2.5h15c1.38,0,2.5-1.12,2.5-2.5V4.38l-8.5,6.38c-.89.67-2.11.67-3,0L0,4.38Z"/><path class="c" d="m1.88,15c-1.04,0-1.88.84-1.88,1.88,0,.59.28,1.14.75,1.5l8.5,6.38c.45.33,1.05.33,1.5,0l8.5-6.38c.47-.36.75-.91.75-1.5,0-1.04-.84-1.88-1.88-1.88,0,0-16.25,0-16.25,0Zm-1.88,4.38v8.12c0,1.38,1.12,2.5,2.5,2.5h15c1.38,0,2.5-1.12,2.5-2.5v-8.12l-8.5,6.38c-.89.67-2.11.67-3,0L0,19.38Z"/></svg>