<?xml version="1.0" encoding="UTF-8"?>
<svg id="logo" xmlns="http://www.w3.org/2000/svg" version="1.1" viewBox="0 0 512 84">
  <!-- Generator: Adobe Illustrator 29.0.0, SVG Export Plug-In . SVG Version: 2.1.0 Build 186)  -->
  <defs>
    <style>
      .st0 {
        fill: #acacac;
      }
    </style>
  </defs>
  <path class="st0" d="M41.7,43.4c-.4,5.5-2.4,9.8-6.1,13-3.7,3.2-8.5,4.7-14.5,4.7s-11.7-2.2-15.5-6.6C1.9,50.1,0,44.1,0,36.3v-3.1c0-4.9.9-9.3,2.6-13,1.7-3.7,4.2-6.6,7.4-8.6,3.2-2,7-3,11.2-3s10.7,1.6,14.3,4.7c3.6,3.2,5.7,7.6,6.3,13.3h-10.5c-.3-3.3-1.2-5.7-2.8-7.2-1.6-1.5-4-2.2-7.2-2.2s-6.1,1.3-7.9,3.8c-1.7,2.5-2.6,6.4-2.7,11.7v3.9c0,5.5.8,9.6,2.5,12.1,1.7,2.6,4.3,3.8,7.9,3.8s5.7-.7,7.3-2.2c1.6-1.5,2.5-3.8,2.8-6.9h10.5Z"/>
  <path class="st0" d="M70.8,56.6c-2.5,3-6,4.6-10.4,4.6s-7.2-1.2-9.3-3.5c-2.1-2.3-3.2-5.8-3.3-10.3v-24.9h10.2v24.6c0,4,1.8,5.9,5.4,5.9s5.8-1.2,7.1-3.6v-27h10.2v38h-9.6l-.3-3.9Z"/>
  <path class="st0" d="M108.9,49.9c0-1.2-.6-2.2-1.8-2.9-1.2-.7-3.2-1.4-5.9-1.9-9-1.9-13.6-5.7-13.6-11.5s1.4-6.2,4.2-8.5c2.8-2.3,6.5-3.4,11-3.4s8.7,1.1,11.6,3.4c2.9,2.3,4.3,5.2,4.3,8.9h-10.2c0-1.5-.5-2.7-1.4-3.6-.9-.9-2.4-1.4-4.4-1.4s-3,.4-4,1.2c-.9.8-1.4,1.8-1.4,3s.5,2,1.6,2.7c1.1.7,2.9,1.3,5.4,1.8,2.5.5,4.7,1.1,6.4,1.7,5.4,2,8.1,5.4,8.1,10.2s-1.5,6.3-4.5,8.4c-3,2.1-6.8,3.2-11.5,3.2s-6-.6-8.5-1.7c-2.5-1.1-4.4-2.7-5.8-4.7-1.4-2-2.1-4.1-2.1-6.4h9.6c0,1.8.8,3.2,2,4.1,1.2,1,2.9,1.4,5,1.4s3.4-.4,4.4-1.1c1-.7,1.5-1.7,1.5-2.9Z"/>
  <path class="st0" d="M137.5,13.1v9.4h6.5v7.5h-6.5v19c0,1.4.3,2.4.8,3,.5.6,1.6.9,3.1.9s2.1,0,3-.2v7.7c-2,.6-4,.9-6.2.9-7.1,0-10.8-3.6-10.9-10.8v-20.5h-5.6v-7.5h5.6v-9.4h10.2Z"/>
  <path class="st0" d="M147,41.1c0-3.8.7-7.1,2.2-10.1,1.5-3,3.5-5.2,6.3-6.9,2.7-1.6,5.9-2.4,9.5-2.4,5.1,0,9.3,1.6,12.6,4.7,3.2,3.1,5.1,7.4,5.4,12.8v2.6c0,5.8-1.6,10.5-4.8,14-3.3,3.5-7.6,5.3-13.1,5.3s-9.9-1.8-13.1-5.3-4.9-8.3-4.9-14.3v-.5ZM157.1,41.8c0,3.6.7,6.4,2,8.3,1.4,1.9,3.3,2.9,5.8,2.9s4.4-.9,5.8-2.8c1.4-1.9,2.1-4.9,2.1-9.1s-.7-6.3-2.1-8.2c-1.4-1.9-3.3-2.9-5.8-2.9s-4.4,1-5.8,2.9c-1.4,1.9-2,4.9-2,9Z"/>
  <path class="st0" d="M198.8,22.4l.3,4.3c2.7-3.3,6.3-5,10.9-5s8.3,1.9,10.1,5.8c2.7-3.9,6.5-5.8,11.4-5.8s7.2,1.2,9.2,3.6c2,2.4,3,6,3,10.8v24.3h-10.2v-24.3c0-2.2-.4-3.7-1.3-4.7-.8-1-2.3-1.5-4.5-1.5-3,0-5.2,1.5-6.3,4.4v26.1s-10.1,0-10.1,0v-24.2c0-2.2-.4-3.8-1.3-4.8s-2.3-1.5-4.4-1.5-5,1.2-6.3,3.6v26.9h-10.2V22.4h9.5Z"/>
  <path class="st0" d="M280.8,52h22.4v8.5h-32.9V9.3h10.5v42.7Z"/>
  <path class="st0" d="M306.9,41.1c0-3.8.7-7.1,2.2-10.1s3.5-5.2,6.3-6.9,5.9-2.4,9.5-2.4c5.1,0,9.3,1.6,12.6,4.7,3.2,3.1,5.1,7.4,5.4,12.8v2.6c0,5.8-1.6,10.5-4.8,14-3.3,3.5-7.6,5.3-13.1,5.3s-9.9-1.8-13.1-5.3-4.9-8.3-4.9-14.3v-.5ZM317.1,41.8c0,3.6.7,6.4,2,8.3s3.3,2.9,5.8,2.9,4.4-.9,5.8-2.8,2.1-4.9,2.1-9.1-.7-6.3-2.1-8.2c-1.4-1.9-3.3-2.9-5.8-2.9s-4.4,1-5.8,2.9c-1.4,1.9-2,4.9-2,9Z"/>
  <path class="st0" d="M347.8,41.2c0-5.8,1.4-10.5,4.2-14.1,2.8-3.6,6.5-5.3,11.2-5.3s7.4,1.4,9.7,4.3l.4-3.6h9.2v36.8c0,3.3-.8,6.2-2.3,8.7s-3.6,4.3-6.4,5.6-6,1.9-9.6,1.9-5.5-.6-8.2-1.7-4.7-2.5-6-4.3l4.5-6.2c2.5,2.8,5.6,4.3,9.2,4.3s4.8-.7,6.3-2.2,2.2-3.5,2.2-6.1v-2c-2.3,2.6-5.4,4-9.2,4s-8.3-1.8-11.1-5.4c-2.8-3.6-4.2-8.3-4.2-14.2v-.4ZM357.9,41.9c0,3.5.7,6.2,2.1,8.1s3.3,2.9,5.7,2.9,5.3-1.2,6.6-3.5v-16c-1.4-2.3-3.6-3.5-6.6-3.5s-4.4,1-5.7,3-2.1,5-2.1,8.9Z"/>
  <path class="st0" d="M388.8,41.1c0-3.8.7-7.1,2.2-10.1s3.5-5.2,6.3-6.9,5.9-2.4,9.5-2.4c5.1,0,9.3,1.6,12.6,4.7,3.2,3.1,5.1,7.4,5.4,12.8v2.6c0,5.8-1.6,10.5-4.8,14-3.3,3.5-7.6,5.3-13.1,5.3s-9.9-1.8-13.1-5.3-4.9-8.3-4.9-14.3v-.5ZM398.9,41.8c0,3.6.7,6.4,2,8.3s3.3,2.9,5.8,2.9,4.4-.9,5.8-2.8,2.1-4.9,2.1-9.1-.7-6.3-2.1-8.2c-1.4-1.9-3.3-2.9-5.8-2.9s-4.4,1-5.8,2.9c-1.4,1.9-2,4.9-2,9Z"/>
</svg>