<?xml version="1.0" encoding="UTF-8"?><svg id="a" xmlns="http://www.w3.org/2000/svg" xmlns:xlink="http://www.w3.org/1999/xlink" viewBox="0 0 512 84"><defs><style>.ah{fill:url(#j);}.ai{fill:url(#p);}.aj{fill:url(#m);}.ak{fill:url(#aa);}.al{fill:url(#r);}.am{fill:url(#t);}.an{fill:url(#i);}.ao{fill:url(#l);}.ap{fill:url(#af);}.aq{fill:url(#s);}.ar{fill:url(#q);}.as{fill:url(#n);}.at{fill:url(#ad);}.au{fill:url(#v);}.av{fill:url(#y);}.aw{fill:url(#o);}.ax{fill:#dad9d9;}.ay{fill:url(#x);}.az{fill:url(#u);}.ba{fill:url(#ae);}.bb{fill:url(#z);}.bc{fill:url(#ag);}.bd{fill:url(#w);}.be{fill:#acacac;}.bf{fill:url(#ab);}.bg{fill:url(#k);}.bh{fill:url(#ac);}</style><linearGradient id="i" x1="291.54" y1="198.77" x2="349.82" y2="198.77" gradientTransform="translate(222.46 -289.54) rotate(90)" gradientUnits="userSpaceOnUse"><stop offset="0" stop-color="#f68b34"/><stop offset="1" stop-color="#e12a28"/></linearGradient><linearGradient id="j" y1="163.07" x2="349.82" y2="163.07" xlink:href="#i"/><linearGradient id="k" y1="187.36" y2="187.36" xlink:href="#i"/><linearGradient id="l" y1="203.31" x2="349.82" y2="203.31" xlink:href="#i"/><linearGradient id="m" y1="181.3" x2="349.82" y2="181.3" xlink:href="#i"/><linearGradient id="n" y1="190.81" x2="349.82" y2="190.81" xlink:href="#i"/><linearGradient id="o" y1="196.64" x2="349.82" y2="196.64" xlink:href="#i"/><linearGradient id="p" y1="169" x2="349.82" y2="169" xlink:href="#i"/><linearGradient id="q" y1="175.22" x2="349.82" y2="175.22" xlink:href="#i"/><linearGradient id="r" y1="176.39" x2="349.82" y2="176.39" xlink:href="#i"/><linearGradient id="s" y1="185.1" x2="349.82" y2="185.1" xlink:href="#i"/><linearGradient id="t" y1="177.46" x2="349.82" y2="177.46" xlink:href="#i"/><linearGradient id="u" y1="180.09" x2="349.82" y2="180.09" xlink:href="#i"/><linearGradient id="v" y1="176.8" y2="176.8" xlink:href="#i"/><linearGradient id="w" y1="179.93" x2="349.82" y2="179.93" xlink:href="#i"/><linearGradient id="x" y1="182.43" x2="349.82" y2="182.43" xlink:href="#i"/><linearGradient id="y" y1="154.19" x2="349.82" y2="154.19" xlink:href="#i"/><linearGradient id="z" y1="169" x2="349.82" y2="169" xlink:href="#i"/><linearGradient id="aa" y1="166.4" y2="166.4" xlink:href="#i"/><linearGradient id="ab" x1="291.54" y1="169.43" x2="349.82" y2="169.43" xlink:href="#i"/><linearGradient id="ac" y1="171.84" x2="349.82" y2="171.84" xlink:href="#i"/><linearGradient id="ad" y1="174.55" x2="349.82" y2="174.55" xlink:href="#i"/><linearGradient id="ae" y1="170.42" y2="170.42" xlink:href="#i"/><linearGradient id="af" y1="167.7" x2="349.82" y2="167.7" xlink:href="#i"/><linearGradient id="ag" y1="194.37" x2="349.82" y2="194.37" xlink:href="#i"/></defs><path class="be" d="m145.03,65.38l-2.97-9.76h-14.95l-2.97,9.76h-9.37l14.47-41.17h10.63l14.53,41.17h-9.37Zm-5.05-17.05c-2.75-8.84-4.3-13.85-4.64-15-.35-1.16-.59-2.08-.74-2.75-.62,2.39-2.38,8.31-5.3,17.75h10.69Z"/><path class="be" d="m176.84,33.44c1.16,0,2.12.08,2.89.25l-.65,8.02c-.69-.19-1.53-.28-2.52-.28-2.73,0-4.86.7-6.38,2.1-1.52,1.4-2.29,3.37-2.29,5.89v15.96h-8.55v-31.36h6.48l1.26,5.27h.42c.97-1.76,2.29-3.17,3.94-4.25s3.45-1.61,5.4-1.61Z"/><path class="be" d="m195.81,65.94c-3.68,0-6.58-1.43-8.68-4.29s-3.16-6.82-3.16-11.89,1.07-9.15,3.21-12.02c2.14-2.87,5.09-4.31,8.85-4.31,3.94,0,6.96,1.53,9.03,4.6h.28c-.43-2.34-.65-4.42-.65-6.25v-10.04h8.58v43.64h-6.56l-1.65-4.07h-.36c-1.94,3.09-4.91,4.63-8.89,4.63Zm3-6.82c2.19,0,3.79-.63,4.81-1.91,1.02-1.27,1.57-3.43,1.67-6.48v-.92c0-3.37-.52-5.78-1.56-7.24-1.04-1.46-2.73-2.19-5.06-2.19-1.91,0-3.39.81-4.45,2.43-1.06,1.62-1.58,3.97-1.58,7.05s.53,5.4,1.6,6.94c1.07,1.54,2.59,2.31,4.57,2.31Z"/><path class="be" d="m236.88,65.94c-5.05,0-8.99-1.39-11.84-4.18-2.84-2.79-4.26-6.73-4.26-11.83s1.31-9.32,3.94-12.19,6.26-4.31,10.9-4.31,7.88,1.26,10.35,3.79c2.47,2.52,3.7,6.01,3.7,10.46v4.15h-20.22c.09,2.43.81,4.33,2.16,5.69,1.35,1.37,3.23,2.05,5.67,2.05,1.89,0,3.67-.2,5.36-.59,1.68-.39,3.44-1.02,5.27-1.88v6.62c-1.5.75-3.09,1.3-4.8,1.67-1.7.36-3.78.55-6.23.55Zm-1.21-26.42c-1.81,0-3.23.57-4.26,1.72s-1.62,2.78-1.77,4.89h12c-.04-2.11-.59-3.74-1.65-4.89-1.07-1.15-2.51-1.72-4.32-1.72Z"/><path class="be" d="m286.03,65.38h-8.55v-18.31c0-2.26-.4-3.96-1.21-5.09s-2.08-1.7-3.84-1.7c-2.39,0-4.12.8-5.19,2.4-1.07,1.6-1.6,4.25-1.6,7.95v14.75h-8.55v-31.36h6.54l1.15,4.01h.48c.95-1.51,2.27-2.66,3.94-3.44,1.67-.78,3.58-1.16,5.71-1.16,3.65,0,6.41.99,8.3,2.96,1.89,1.97,2.83,4.82,2.83,8.54v20.45Z"/><path class="be" d="m308.51,59.13c1.5,0,3.29-.33,5.38-.98v6.37c-2.13.95-4.75,1.43-7.85,1.43-3.42,0-5.91-.86-7.47-2.59-1.56-1.73-2.34-4.32-2.34-7.78v-15.12h-4.09v-3.62l4.71-2.86,2.47-6.62h5.47v6.67h8.78v6.42h-8.78v15.12c0,1.22.34,2.11,1.02,2.69.68.58,1.58.87,2.71.87Z"/><path class="be" d="m345.3,65.38h-8.55V24.38h23.5v7.12h-14.95v10.57h13.91v7.1h-13.91v16.21Z"/><path class="be" d="m396.55,49.65c0,5.1-1.35,9.1-4.04,11.98-2.69,2.88-6.44,4.32-11.25,4.32-3.01,0-5.67-.66-7.96-1.98-2.3-1.32-4.07-3.21-5.3-5.68-1.23-2.47-1.85-5.35-1.85-8.64,0-5.12,1.34-9.1,4.01-11.95,2.67-2.84,6.43-4.26,11.27-4.26,3.01,0,5.67.65,7.96,1.96,2.3,1.31,4.07,3.19,5.3,5.64,1.23,2.45,1.85,5.32,1.85,8.61Zm-21.68,0c0,3.1.51,5.45,1.53,7.04,1.02,1.59,2.68,2.38,4.98,2.38s3.92-.79,4.92-2.37c1-1.58,1.5-3.93,1.5-7.05s-.5-5.43-1.51-6.98c-1.01-1.55-2.67-2.33-4.96-2.33s-3.93.77-4.94,2.31c-1.01,1.54-1.51,3.88-1.51,7Z"/><path class="be" d="m421.57,33.44c1.16,0,2.12.08,2.89.25l-.65,8.02c-.69-.19-1.53-.28-2.52-.28-2.73,0-4.86.7-6.38,2.1-1.52,1.4-2.29,3.37-2.29,5.89v15.96h-8.55v-31.36h6.48l1.26,5.27h.42c.97-1.76,2.29-3.17,3.94-4.25,1.66-1.08,3.45-1.61,5.4-1.61Z"/><path class="be" d="m458.69,65.38h-8.55v-18.31c0-2.26-.38-3.96-1.14-5.09-.76-1.13-1.95-1.7-3.58-1.7-2.19,0-3.78.8-4.77,2.41-.99,1.61-1.49,4.25-1.49,7.94v14.75h-8.55v-31.36h6.54l1.15,4.01h.48c.84-1.44,2.06-2.57,3.65-3.38,1.59-.81,3.41-1.22,5.47-1.22,4.69,0,7.87,1.53,9.54,4.6h.76c.84-1.46,2.08-2.59,3.72-3.39,1.64-.8,3.48-1.21,5.54-1.21,3.55,0,6.24.91,8.06,2.73,1.82,1.82,2.73,4.74,2.73,8.76v20.45h-8.58v-18.31c0-2.26-.38-3.96-1.14-5.09s-1.95-1.7-3.58-1.7c-2.09,0-3.66.75-4.7,2.24-1.04,1.5-1.56,3.87-1.56,7.12v15.73Z"/><path class="be" d="m509.35,56.07c0,3.22-1.12,5.67-3.35,7.35-2.23,1.68-5.58,2.52-10.03,2.52-2.28,0-4.23-.15-5.83-.46-1.61-.31-3.11-.76-4.51-1.36v-7.07c1.59.75,3.38,1.37,5.37,1.88s3.74.76,5.26.76c3.1,0,4.66-.9,4.66-2.69,0-.67-.21-1.22-.62-1.64-.41-.42-1.12-.9-2.13-1.43s-2.36-1.15-4.04-1.87c-2.41-1.01-4.18-1.94-5.31-2.8-1.13-.86-1.95-1.85-2.47-2.96-.51-1.11-.77-2.48-.77-4.11,0-2.79,1.08-4.94,3.24-6.46,2.16-1.52,5.22-2.29,9.19-2.29s7.45.82,11.02,2.47l-2.58,6.17c-1.57-.67-3.04-1.22-4.4-1.65-1.37-.43-2.76-.65-4.18-.65-2.52,0-3.79.68-3.79,2.05,0,.77.41,1.43,1.22,1.99.81.56,2.59,1.39,5.34,2.5,2.45.99,4.24,1.92,5.38,2.78,1.14.86,1.98,1.85,2.52,2.97s.81,2.46.81,4.01Z"/><g id="b"><rect id="c" class="be" x="30.37" y="56.54" width="14.47" height="25.05"/><rect id="d" class="be" x="49.68" y="59.52" width="13.61" height="18.76" transform="translate(-6.09 5.48) rotate(-5.27)"/><rect id="e" class="be" x="13.65" y="60.61" width="15.78" height="12.47" transform="translate(-47.22 81.11) rotate(-83.86)"/><rect id="f" class="be" x="68.65" y="54.73" width="8.81" height="13.69" transform="translate(-19.52 37.95) rotate(-25.81)"/><rect id="g" class="be" x="1.76" y="50.81" width="14.05" height="10.66" transform="translate(-35.21 20.18) rotate(-41.84)"/></g><g id="h"><rect class="ax" x="19.52" y="50.59" width="8.35" height="6.14"/><rect class="an" x="19.52" y="50.59" width="8.35" height="6.14"/><rect class="ax" x="56.08" y="48.69" width="6.63" height="5.24"/><rect class="ah" x="56.08" y="48.69" width="6.63" height="5.24"/><rect class="ax" x="30.64" y="44.8" width="8.92" height="6.85"/><rect class="bg" x="30.64" y="44.8" width="8.92" height="6.85"/><rect class="ax" x="14.8" y="39.13" width="8.69" height="5.49"/><rect class="ao" x="14.8" y="39.13" width="8.69" height="5.49"/><rect class="ax" x="39.08" y="38.66" width="4.17" height="3.37"/><rect class="aj" x="39.08" y="38.66" width="4.17" height="3.37"/><rect class="ax" x="29.56" y="37.9" width="4.17" height="3.2"/><rect class="as" x="29.56" y="37.9" width="4.17" height="3.2"/><rect class="ax" x="24.13" y="44.3" width="3.37" height="3.03"/><rect class="aw" x="24.13" y="44.3" width="3.37" height="3.03"/><rect class="ax" x="51.38" y="43.61" width="4.17" height="3.43"/><rect class="ai" x="51.38" y="43.61" width="4.17" height="3.43"/><rect class="ax" x="45.27" y="48.26" width="3.95" height="3.95"/><rect class="ar" x="45.27" y="48.26" width="3.95" height="3.95"/><rect class="ax" x="43.27" y="31.27" width="5.6" height="4.17"/><rect class="al" x="43.27" y="31.27" width="5.6" height="4.17"/><rect class="ax" x="34.82" y="26.52" width="5.09" height="6.06"/><rect class="aq" x="34.82" y="26.52" width="5.09" height="6.06"/><rect class="ax" x="43.18" y="20.98" width="3.66" height="4.06"/><rect class="am" x="43.18" y="20.98" width="3.66" height="4.06"/><rect class="ax" x="41.04" y="15.43" width="2.67" height="3.83"/><rect class="az" x="41.04" y="15.43" width="2.67" height="3.83"/><rect class="ax" x="43.9" y="11.61" width="3.52" height="4.12"/><rect class="au" x="43.9" y="11.61" width="3.52" height="4.12"/><rect class="ax" x="41.05" y="5.32" width="2.97" height="3.43"/><rect class="bd" x="41.05" y="5.32" width="2.97" height="3.43"/><rect class="ax" x="39.21" y="2.4" width="1.66" height="2.23"/><rect class="ay" x="39.21" y="2.4" width="1.66" height="2.23"/><rect class="ax" x="67.01" y="50.23" width="2.52" height="2.52"/><rect class="av" x="67.01" y="50.23" width="2.52" height="2.52"/><rect class="ax" x="51.38" y="34.41" width="4.17" height="4.17"/><rect class="bb" x="51.38" y="34.41" width="4.17" height="4.17"/><rect class="ax" x="53.47" y="19.26" width="5.19" height="3.75"/><rect class="ak" x="53.47" y="19.26" width="5.19" height="3.75"/><rect class="ax" x="52.03" y="27.53" width="2" height="3.74"/><rect class="bf" x="52.03" y="27.53" width="2" height="3.74"/><rect class="ax" x="49.21" y="13.67" width="2.82" height="4.74"/><rect class="bh" x="49.21" y="13.67" width="2.82" height="4.74"/><rect class="ax" x="46.62" y="7.91" width="2.59" height="2.59"/><rect class="at" x="46.62" y="7.91" width="2.59" height="2.59"/><rect class="ax" x="50.62" y="10.5" width="2.84" height="2.03"/><rect class="ba" x="50.62" y="10.5" width="2.84" height="2.03"/><rect class="ax" x="53.47" y="15.43" width="2.6" height="2.6"/><rect class="ap" x="53.47" y="15.43" width="2.6" height="2.6"/><rect class="ax" x="25.82" y="33.36" width="4.55" height="2.09"/><rect class="bc" x="25.82" y="33.36" width="4.55" height="2.09"/></g></svg>