<?xml version="1.0" encoding="UTF-8"?><svg id="a" xmlns="http://www.w3.org/2000/svg" xmlns:xlink="http://www.w3.org/1999/xlink" viewBox="0 0 32 32"><defs><style>.ah{fill:url(#j);}.ai{fill:url(#p);}.aj{fill:url(#m);}.ak{fill:url(#aa);}.al{fill:url(#r);}.am{fill:url(#t);}.an{fill:url(#i);}.ao{fill:url(#l);}.ap{fill:url(#af);}.aq{fill:url(#s);}.ar{fill:url(#q);}.as{fill:url(#n);}.at{fill:#1b1b1b;}.au{fill:url(#ad);}.av{fill:url(#v);}.aw{fill:url(#y);}.ax{fill:url(#o);}.ay{fill:#dad9d9;}.az{fill:url(#x);}.ba{fill:url(#u);}.bb{fill:url(#ae);}.bc{fill:url(#z);}.bd{fill:url(#ag);}.be{fill:url(#w);}.bf{fill:url(#ab);}.bg{fill:url(#k);}.bh{fill:url(#ac);}</style><linearGradient id="i" x1="298.54" y1="-181.98" x2="321.85" y2="-181.98" gradientTransform="translate(191.46 -298.54) rotate(90) scale(1 -1)" gradientUnits="userSpaceOnUse"><stop offset="0" stop-color="#f68b34"/><stop offset="1" stop-color="#e12a28"/></linearGradient><linearGradient id="j" y1="-167.7" x2="321.85" y2="-167.7" xlink:href="#i"/><linearGradient id="k" y1="-177.42" x2="321.85" y2="-177.42" xlink:href="#i"/><linearGradient id="l" x1="298.54" y1="-183.8" x2="321.85" y2="-183.8" xlink:href="#i"/><linearGradient id="m" x1="298.54" y1="-174.99" x2="321.85" y2="-174.99" xlink:href="#i"/><linearGradient id="n" x1="298.54" y1="-178.8" x2="321.85" y2="-178.8" xlink:href="#i"/><linearGradient id="o" x1="298.54" y1="-181.13" x2="321.85" y2="-181.13" xlink:href="#i"/><linearGradient id="p" x1="298.54" y1="-170.07" x2="321.85" y2="-170.07" xlink:href="#i"/><linearGradient id="q" y1="-172.56" x2="321.85" y2="-172.56" xlink:href="#i"/><linearGradient id="r" x1="298.54" y1="-173.03" x2="321.85" y2="-173.03" xlink:href="#i"/><linearGradient id="s" x1="298.54" y1="-176.51" x2="321.85" y2="-176.51" xlink:href="#i"/><linearGradient id="t" x1="298.54" y1="-173.46" x2="321.85" y2="-173.46" xlink:href="#i"/><linearGradient id="u" x1="298.54" y1="-174.51" x2="321.85" y2="-174.51" xlink:href="#i"/><linearGradient id="v" x1="298.54" y1="-173.2" x2="321.85" y2="-173.2" xlink:href="#i"/><linearGradient id="w" x1="298.54" y1="-174.45" x2="321.85" y2="-174.45" xlink:href="#i"/><linearGradient id="x" x1="298.54" y1="-175.44" x2="321.85" y2="-175.44" xlink:href="#i"/><linearGradient id="y" x1="298.54" y1="-164.15" x2="321.85" y2="-164.15" xlink:href="#i"/><linearGradient id="z" x1="298.54" y1="-170.07" x2="321.85" y2="-170.07" xlink:href="#i"/><linearGradient id="aa" x1="298.54" y1="-169.03" x2="321.85" y2="-169.03" xlink:href="#i"/><linearGradient id="ab" x1="298.54" y1="-170.25" x2="321.85" y2="-170.25" xlink:href="#i"/><linearGradient id="ac" x1="298.54" y1="-171.21" x2="321.85" y2="-171.21" xlink:href="#i"/><linearGradient id="ad" x1="298.54" y1="-172.29" x2="321.85" y2="-172.29" xlink:href="#i"/><linearGradient id="ae" x1="298.54" y1="-170.64" x2="321.85" y2="-170.64" xlink:href="#i"/><linearGradient id="af" x1="298.54" y1="-169.55" x2="321.85" y2="-169.55" xlink:href="#i"/><linearGradient id="ag" x1="298.54" y1="-180.22" x2="321.85" y2="-180.22" xlink:href="#i"/></defs><g id="b"><rect id="c" class="at" x="12.15" y="21.82" width="5.79" height="10.02"/><rect id="d" class="at" x="19.87" y="23.01" width="5.44" height="7.5" transform="translate(-2.36 2.19) rotate(-5.27)"/><rect id="e" class="at" x="5.46" y="23.44" width="6.31" height="4.99" transform="translate(-18.09 31.73) rotate(-83.86)"/><rect id="f" class="at" x="27.46" y="21.09" width="3.52" height="5.48" transform="translate(-7.46 15.1) rotate(-25.81)"/><rect id="g" class="at" x=".71" y="19.53" width="5.62" height="4.26" transform="translate(-13.55 7.87) rotate(-41.84)"/></g><g id="h"><rect class="ay" x="7.81" y="19.44" width="3.34" height="2.46"/><rect class="an" x="7.81" y="19.44" width="3.34" height="2.46"/><rect class="ay" x="22.43" y="18.68" width="2.65" height="2.1"/><rect class="ah" x="22.43" y="18.68" width="2.65" height="2.1"/><rect class="ay" x="12.26" y="17.12" width="3.57" height="2.74"/><rect class="bg" x="12.26" y="17.12" width="3.57" height="2.74"/><rect class="ay" x="5.92" y="14.85" width="3.48" height="2.2"/><rect class="ao" x="5.92" y="14.85" width="3.48" height="2.2"/><rect class="ay" x="15.63" y="14.67" width="1.67" height="1.35"/><rect class="aj" x="15.63" y="14.67" width="1.67" height="1.35"/><rect class="ay" x="11.83" y="14.36" width="1.67" height="1.28"/><rect class="as" x="11.83" y="14.36" width="1.67" height="1.28"/><rect class="ay" x="9.65" y="16.92" width="1.35" height="1.21"/><rect class="ax" x="9.65" y="16.92" width="1.35" height="1.21"/><rect class="ay" x="20.55" y="16.65" width="1.67" height="1.37"/><rect class="ai" x="20.55" y="16.65" width="1.67" height="1.37"/><rect class="ay" x="18.11" y="18.51" width="1.58" height="1.58"/><rect class="ar" x="18.11" y="18.51" width="1.58" height="1.58"/><rect class="ay" x="17.31" y="11.71" width="2.24" height="1.67"/><rect class="al" x="17.31" y="11.71" width="2.24" height="1.67"/><rect class="ay" x="13.93" y="9.81" width="2.04" height="2.42"/><rect class="aq" x="13.93" y="9.81" width="2.04" height="2.42"/><rect class="ay" x="17.27" y="7.59" width="1.46" height="1.62"/><rect class="am" x="17.27" y="7.59" width="1.46" height="1.62"/><rect class="ay" x="16.42" y="5.38" width="1.07" height="1.53"/><rect class="ba" x="16.42" y="5.38" width="1.07" height="1.53"/><rect class="ay" x="17.56" y="3.85" width="1.41" height="1.65"/><rect class="av" x="17.56" y="3.85" width="1.41" height="1.65"/><rect class="ay" x="16.42" y="1.33" width="1.19" height="1.37"/><rect class="be" x="16.42" y="1.33" width="1.19" height="1.37"/><rect class="ay" x="15.68" y=".16" width=".66" height=".89"/><rect class="az" x="15.68" y=".16" width=".66" height=".89"/><rect class="ay" x="26.8" y="19.29" width="1.01" height="1.01"/><rect class="aw" x="26.8" y="19.29" width="1.01" height="1.01"/><rect class="ay" x="20.55" y="12.97" width="1.67" height="1.67"/><rect class="bc" x="20.55" y="12.97" width="1.67" height="1.67"/><rect class="ay" x="21.39" y="6.91" width="2.08" height="1.5"/><rect class="ak" x="21.39" y="6.91" width="2.08" height="1.5"/><rect class="ay" x="20.81" y="10.21" width=".8" height="1.5"/><rect class="bf" x="20.81" y="10.21" width=".8" height="1.5"/><rect class="ay" x="19.68" y="4.67" width="1.13" height="1.9"/><rect class="bh" x="19.68" y="4.67" width="1.13" height="1.9"/><rect class="ay" x="18.65" y="2.37" width="1.04" height="1.04"/><rect class="au" x="18.65" y="2.37" width="1.04" height="1.04"/><rect class="ay" x="20.25" y="3.4" width="1.14" height=".81"/><rect class="bb" x="20.25" y="3.4" width="1.14" height=".81"/><rect class="ay" x="21.39" y="5.38" width="1.04" height="1.04"/><rect class="ap" x="21.39" y="5.38" width="1.04" height="1.04"/><rect class="ay" x="10.33" y="12.55" width="1.82" height=".84"/><rect class="bd" x="10.33" y="12.55" width="1.82" height=".84"/></g></svg>