<?xml version="1.0" encoding="UTF-8"?><svg id="a" xmlns="http://www.w3.org/2000/svg" viewBox="0 0 32 32"><defs><style>.x{fill:#1c1d1d;}</style></defs><g id="b"><rect id="c" class="x" x="12.15" y="21.82" width="5.79" height="10.02"/><rect id="d" class="x" x="19.87" y="23.01" width="5.45" height="7.5" transform="translate(-2.36 2.19) rotate(-5.27)"/><rect id="e" class="x" x="5.46" y="23.44" width="6.31" height="4.99" transform="translate(-18.09 31.73) rotate(-83.86)"/><rect id="f" class="x" x="27.46" y="21.09" width="3.52" height="5.48" transform="translate(-7.46 15.1) rotate(-25.81)"/><rect id="g" class="x" x=".71" y="19.53" width="5.62" height="4.26" transform="translate(-13.55 7.87) rotate(-41.84)"/><rect id="h" class="x" x="7.81" y="19.43" width="3.34" height="2.46"/><rect id="i" class="x" x="22.43" y="18.68" width="2.65" height="2.1"/><rect id="j" class="x" x="12.26" y="17.12" width="3.57" height="2.74"/><rect id="k" class="x" x="5.92" y="14.85" width="3.48" height="2.2"/><rect id="l" class="x" x="15.63" y="14.67" width="1.67" height="1.35"/><rect id="m" class="x" x="11.82" y="14.36" width="1.67" height="1.28"/><rect id="n" class="x" x="9.65" y="16.92" width="1.35" height="1.21"/><rect id="o" class="x" x="20.55" y="16.64" width="1.67" height="1.37"/><rect id="p" class="x" x="18.11" y="18.5" width="1.58" height="1.58"/><rect id="q" class="x" x="17.31" y="11.71" width="2.24" height="1.67"/><rect id="r" class="x" x="13.93" y="9.81" width="2.04" height="2.43"/><rect id="s" class="x" x="17.27" y="7.59" width="1.46" height="1.62"/><rect id="t" class="x" x="16.42" y="5.37" width="1.07" height="1.53"/><rect id="u" class="x" x="17.56" y="3.84" width="1.41" height="1.65"/><rect id="v" class="x" x="16.42" y="1.33" width="1.19" height="1.37"/><rect id="w" class="x" x="15.68" y=".16" width=".66" height=".89"/></g></svg>