<?xml version="1.0" encoding="UTF-8"?><svg id="a" xmlns="http://www.w3.org/2000/svg" viewBox="0 0 512 512"><defs><style>.b{fill:#b6b6b6;}</style></defs><path class="b" d="m0,256c0,141.38,114.62,256,256,256s256-114.62,256-256S397.38,0,256,0,0,114.62,0,256Zm294.6-120.9l99.9,107.1c3.5,3.8,5.5,8.7,5.5,13.8s-2,10.1-5.5,13.8l-99.9,107.1c-4.2,4.5-10.1,7.1-16.3,7.1-12.3,0-22.3-10-22.3-22.3v-57.7h-96c-17.7,0-32-14.3-32-32v-32c0-17.7,14.3-32,32-32h96v-57.7c0-12.3,10-22.3,22.3-22.3,6.2,0,12.1,2.6,16.3,7.1h0Z"/></svg>