<?xml version="1.0" encoding="UTF-8"?><svg id="a" xmlns="http://www.w3.org/2000/svg" viewBox="0 0 512 84"><defs><style>.w{fill:#dad9d9;}</style></defs><path class="w" d="m145.03,65.38l-2.97-9.76h-14.95l-2.97,9.76h-9.37l14.47-41.17h10.63l14.53,41.17h-9.37Zm-5.05-17.05c-2.75-8.84-4.3-13.85-4.64-15-.35-1.16-.59-2.08-.74-2.75-.62,2.39-2.38,8.31-5.3,17.75h10.69Z"/><path class="w" d="m176.84,33.44c1.16,0,2.12.08,2.89.25l-.65,8.02c-.69-.19-1.53-.28-2.52-.28-2.73,0-4.86.7-6.38,2.1-1.52,1.4-2.29,3.37-2.29,5.89v15.96h-8.55v-31.36h6.48l1.26,5.27h.42c.97-1.76,2.29-3.17,3.94-4.25s3.45-1.61,5.4-1.61Z"/><path class="w" d="m195.81,65.94c-3.68,0-6.58-1.43-8.68-4.29s-3.16-6.82-3.16-11.89,1.07-9.15,3.21-12.02c2.14-2.87,5.09-4.31,8.85-4.31,3.94,0,6.96,1.53,9.03,4.6h.28c-.43-2.34-.65-4.42-.65-6.25v-10.04h8.58v43.64h-6.56l-1.65-4.07h-.36c-1.94,3.09-4.91,4.63-8.89,4.63Zm3-6.82c2.19,0,3.79-.63,4.81-1.91,1.02-1.27,1.57-3.43,1.67-6.48v-.92c0-3.37-.52-5.78-1.56-7.24-1.04-1.46-2.73-2.19-5.06-2.19-1.91,0-3.39.81-4.45,2.43-1.06,1.62-1.58,3.97-1.58,7.05s.53,5.4,1.6,6.94c1.07,1.54,2.59,2.31,4.57,2.31Z"/><path class="w" d="m236.88,65.94c-5.05,0-8.99-1.39-11.84-4.18-2.84-2.79-4.26-6.73-4.26-11.83s1.31-9.32,3.94-12.19,6.26-4.31,10.9-4.31,7.88,1.26,10.35,3.79c2.47,2.52,3.7,6.01,3.7,10.46v4.15h-20.22c.09,2.43.81,4.33,2.16,5.69,1.35,1.37,3.23,2.05,5.67,2.05,1.89,0,3.67-.2,5.36-.59,1.68-.39,3.44-1.02,5.27-1.88v6.62c-1.5.75-3.09,1.3-4.8,1.67-1.7.36-3.78.55-6.23.55Zm-1.21-26.42c-1.81,0-3.23.57-4.26,1.72s-1.62,2.78-1.77,4.89h12c-.04-2.11-.59-3.74-1.65-4.89-1.07-1.15-2.51-1.72-4.32-1.72Z"/><path class="w" d="m286.03,65.38h-8.55v-18.31c0-2.26-.4-3.96-1.21-5.09s-2.08-1.7-3.84-1.7c-2.39,0-4.12.8-5.19,2.4-1.07,1.6-1.6,4.25-1.6,7.95v14.75h-8.55v-31.36h6.54l1.15,4.01h.48c.95-1.51,2.27-2.66,3.94-3.44,1.67-.78,3.58-1.16,5.71-1.16,3.65,0,6.41.99,8.3,2.96,1.89,1.97,2.83,4.82,2.83,8.54v20.45Z"/><path class="w" d="m308.51,59.13c1.5,0,3.29-.33,5.38-.98v6.37c-2.13.95-4.75,1.43-7.85,1.43-3.42,0-5.91-.86-7.47-2.59-1.56-1.73-2.34-4.32-2.34-7.78v-15.12h-4.09v-3.62l4.71-2.86,2.47-6.62h5.47v6.67h8.78v6.42h-8.78v15.12c0,1.22.34,2.11,1.02,2.69.68.58,1.58.87,2.71.87Z"/><path class="w" d="m345.3,65.38h-8.55V24.38h23.5v7.12h-14.95v10.57h13.91v7.1h-13.91v16.21Z"/><path class="w" d="m396.55,49.65c0,5.1-1.35,9.1-4.04,11.98-2.69,2.88-6.44,4.32-11.25,4.32-3.01,0-5.67-.66-7.96-1.98-2.3-1.32-4.07-3.21-5.3-5.68-1.23-2.47-1.85-5.35-1.85-8.64,0-5.12,1.34-9.1,4.01-11.95,2.67-2.84,6.43-4.26,11.27-4.26,3.01,0,5.67.65,7.96,1.96,2.3,1.31,4.07,3.19,5.3,5.64,1.23,2.45,1.85,5.32,1.85,8.61Zm-21.68,0c0,3.1.51,5.45,1.53,7.04,1.02,1.59,2.68,2.38,4.98,2.38s3.92-.79,4.92-2.37c1-1.58,1.5-3.93,1.5-7.05s-.5-5.43-1.51-6.98c-1.01-1.55-2.67-2.33-4.96-2.33s-3.93.77-4.94,2.31c-1.01,1.54-1.51,3.88-1.51,7Z"/><path class="w" d="m421.57,33.44c1.16,0,2.12.08,2.89.25l-.65,8.02c-.69-.19-1.53-.28-2.52-.28-2.73,0-4.86.7-6.38,2.1-1.52,1.4-2.29,3.37-2.29,5.89v15.96h-8.55v-31.36h6.48l1.26,5.27h.42c.97-1.76,2.29-3.17,3.94-4.25,1.66-1.08,3.45-1.61,5.4-1.61Z"/><path class="w" d="m458.69,65.38h-8.55v-18.31c0-2.26-.38-3.96-1.14-5.09-.76-1.13-1.95-1.7-3.58-1.7-2.19,0-3.78.8-4.77,2.41-.99,1.61-1.49,4.25-1.49,7.94v14.75h-8.55v-31.36h6.54l1.15,4.01h.48c.84-1.44,2.06-2.57,3.65-3.38,1.59-.81,3.41-1.22,5.47-1.22,4.69,0,7.87,1.53,9.54,4.6h.76c.84-1.46,2.08-2.59,3.72-3.39,1.64-.8,3.48-1.21,5.54-1.21,3.55,0,6.24.91,8.06,2.73,1.82,1.82,2.73,4.74,2.73,8.76v20.45h-8.58v-18.31c0-2.26-.38-3.96-1.14-5.09s-1.95-1.7-3.58-1.7c-2.09,0-3.66.75-4.7,2.24-1.04,1.5-1.56,3.87-1.56,7.12v15.73Z"/><path class="w" d="m509.35,56.07c0,3.22-1.12,5.67-3.35,7.35-2.23,1.68-5.58,2.52-10.03,2.52-2.28,0-4.23-.15-5.83-.46-1.61-.31-3.11-.76-4.51-1.36v-7.07c1.59.75,3.38,1.37,5.37,1.88s3.74.76,5.26.76c3.1,0,4.66-.9,4.66-2.69,0-.67-.21-1.22-.62-1.64-.41-.42-1.12-.9-2.13-1.43s-2.36-1.15-4.04-1.87c-2.41-1.01-4.18-1.94-5.31-2.8-1.13-.86-1.95-1.85-2.47-2.96-.51-1.11-.77-2.48-.77-4.11,0-2.79,1.08-4.94,3.24-6.46,2.16-1.52,5.22-2.29,9.19-2.29s7.45.82,11.02,2.47l-2.58,6.17c-1.57-.67-3.04-1.22-4.4-1.65-1.37-.43-2.76-.65-4.18-.65-2.52,0-3.79.68-3.79,2.05,0,.77.41,1.43,1.22,1.99.81.56,2.59,1.39,5.34,2.5,2.45.99,4.24,1.92,5.38,2.78,1.14.86,1.98,1.85,2.52,2.97s.81,2.46.81,4.01Z"/><rect id="b" class="w" x="30.53" y="56.62" width="14.55" height="25.18"/><rect id="c" class="w" x="49.94" y="59.61" width="13.68" height="18.86" transform="translate(-6.1 5.5) rotate(-5.27)"/><rect id="d" class="w" x="13.72" y="60.71" width="15.86" height="12.53" transform="translate(-47.25 81.34) rotate(-83.86)"/><rect id="e" class="w" x="69.01" y="54.8" width="8.85" height="13.76" transform="translate(-19.53 38.12) rotate(-25.81)"/><rect id="f" class="w" x="1.77" y="50.86" width="14.13" height="10.71" transform="translate(-35.25 20.23) rotate(-41.84)"/><rect id="g" class="w" x="19.62" y="50.63" width="8.39" height="6.17"/><rect id="h" class="w" x="56.37" y="48.73" width="6.67" height="5.27"/><rect id="i" class="w" x="30.8" y="44.81" width="8.97" height="6.89"/><rect id="j" class="w" x="14.88" y="39.11" width="8.74" height="5.52"/><rect id="k" class="w" x="39.28" y="38.65" width="4.2" height="3.39"/><rect id="l" class="w" x="29.72" y="37.88" width="4.2" height="3.22"/><rect id="m" class="w" x="24.26" y="44.31" width="3.39" height="3.05"/><rect id="n" class="w" x="51.65" y="43.61" width="4.2" height="3.45"/><rect id="o" class="w" x="45.5" y="48.29" width="3.97" height="3.97"/><rect id="p" class="w" x="43.5" y="31.21" width="5.63" height="4.2"/><rect id="q" class="w" x="35" y="26.44" width="5.12" height="6.09"/><rect id="r" class="w" x="43.4" y="20.87" width="3.68" height="4.08"/><rect id="s" class="w" x="41.25" y="15.29" width="2.68" height="3.85"/><rect id="t" class="w" x="44.13" y="11.45" width="3.54" height="4.14"/><rect id="u" class="w" x="41.26" y="5.13" width="2.99" height="3.45"/><rect id="v" class="w" x="39.41" y="2.2" width="1.67" height="2.24"/></svg>